<?xml version="1.0" encoding="UTF-8" standalone="no"?>
<!-- Created with Inkscape (http://www.inkscape.org/) -->

<svg
   xmlns:dc="http://purl.org/dc/elements/1.1/"
   xmlns:cc="http://creativecommons.org/ns#"
   xmlns:rdf="http://www.w3.org/1999/02/22-rdf-syntax-ns#"
   xmlns:svg="http://www.w3.org/2000/svg"
   xmlns="http://www.w3.org/2000/svg"
   xmlns:xlink="http://www.w3.org/1999/xlink"
   xmlns:sodipodi="http://sodipodi.sourceforge.net/DTD/sodipodi-0.dtd"
   xmlns:inkscape="http://www.inkscape.org/namespaces/inkscape"
   width="245.34328"
   height="110.79768"
   viewBox="0 0 64.91374 29.31522"
   version="1.1"
   id="svg8"
   inkscape:version="0.92.3 (2405546, 2018-03-11)"
   sodipodi:docname="vectorial_black.svg">
  <defs
     id="defs2">
    <linearGradient
       inkscape:collect="always"
       id="linearGradient3216">
      <stop
         style="stop-color:#9a9a9a;stop-opacity:1"
         offset="0"
         id="stop3212" />
      <stop
         style="stop-color:#eaeaea;stop-opacity:1"
         offset="1"
         id="stop3214" />
    </linearGradient>
    <linearGradient
       inkscape:collect="always"
       id="linearGradient3207">
      <stop
         style="stop-color:#006270;stop-opacity:1"
         offset="0"
         id="stop3203" />
      <stop
         style="stop-color:#11e2ff;stop-opacity:1"
         offset="1"
         id="stop3205" />
    </linearGradient>
    <linearGradient
       inkscape:collect="always"
       id="linearGradient3183">
      <stop
         style="stop-color:#70009c;stop-opacity:1"
         offset="0"
         id="stop3179" />
      <stop
         style="stop-color:#c93dff;stop-opacity:1"
         offset="1"
         id="stop3181" />
    </linearGradient>
    <linearGradient
       inkscape:collect="always"
       id="linearGradient3175">
      <stop
         style="stop-color:#b07500;stop-opacity:1"
         offset="0"
         id="stop3171" />
      <stop
         style="stop-color:#ffc551;stop-opacity:1"
         offset="1"
         id="stop3173" />
    </linearGradient>
    <linearGradient
       inkscape:collect="always"
       id="linearGradient3167">
      <stop
         style="stop-color:#001e78;stop-opacity:1"
         offset="0"
         id="stop3163" />
      <stop
         style="stop-color:#1953ff;stop-opacity:1"
         offset="1"
         id="stop3165" />
    </linearGradient>
    <linearGradient
       inkscape:collect="always"
       xlink:href="#linearGradient3167"
       id="linearGradient3169"
       x1="28.999937"
       y1="0.00017845652"
       x2="14.999937"
       y2="16.000179"
       gradientUnits="userSpaceOnUse" />
    <linearGradient
       inkscape:collect="always"
       xlink:href="#linearGradient3175"
       id="linearGradient3177"
       x1="28.999937"
       y1="33.000179"
       x2="14.999937"
       y2="17.000179"
       gradientUnits="userSpaceOnUse" />
    <linearGradient
       inkscape:collect="always"
       xlink:href="#linearGradient3183"
       id="linearGradient3185"
       x1="-6.2551182e-005"
       y1="33.000179"
       x2="13.999937"
       y2="17.000179"
       gradientUnits="userSpaceOnUse" />
    <linearGradient
       inkscape:collect="always"
       xlink:href="#linearGradient3207"
       id="linearGradient3209"
       x1="-6.2551175e-005"
       y1="0.00017845652"
       x2="13.999937"
       y2="16.000179"
       gradientUnits="userSpaceOnUse" />
    <linearGradient
       inkscape:collect="always"
       xlink:href="#linearGradient3216"
       id="linearGradient3218"
       x1="216.34955"
       y1="43.007988"
       x2="216.34955"
       y2="35.007988"
       gradientUnits="userSpaceOnUse" />
    <linearGradient
       inkscape:collect="always"
       xlink:href="#linearGradient3167"
       id="linearGradient3231"
       gradientUnits="userSpaceOnUse"
       x1="28.999937"
       y1="0.00017845652"
       x2="14.999937"
       y2="16.000179" />
    <linearGradient
       inkscape:collect="always"
       xlink:href="#linearGradient3216"
       id="linearGradient3233"
       gradientUnits="userSpaceOnUse"
       x1="216.34955"
       y1="43.007988"
       x2="216.34955"
       y2="35.007988" />
  </defs>
  <sodipodi:namedview
     id="base"
     pagecolor="#ffffff"
     bordercolor="#666666"
     borderopacity="1.0"
     inkscape:pageopacity="0.0"
     inkscape:pageshadow="2"
     inkscape:zoom="2"
     inkscape:cx="4.61965"
     inkscape:cy="-18.669105"
     inkscape:document-units="px"
     inkscape:current-layer="layer1"
     showgrid="true"
     units="px"
     inkscape:snap-smooth-nodes="true"
     inkscape:snap-intersection-paths="true"
     inkscape:object-paths="true"
     inkscape:window-width="1920"
     inkscape:window-height="1017"
     inkscape:window-x="-8"
     inkscape:window-y="-8"
     inkscape:window-maximized="1"
     fit-margin-top="1"
     fit-margin-left="1"
     fit-margin-right="1"
     fit-margin-bottom="1">
    <inkscape:grid
       type="xygrid"
       id="grid818"
       spacingx="0.13229167"
       spacingy="0.13229167"
       empspacing="2"
       originx="52.478325"
       originy="19.126692"
       dotted="false"
       enabled="true"
       visible="true" />
  </sodipodi:namedview>
  <metadata
     id="metadata5">
    <rdf:RDF>
      <cc:Work
         rdf:about="">
        <dc:format>image/svg+xml</dc:format>
        <dc:type
           rdf:resource="http://purl.org/dc/dcmitype/StillImage" />
        <dc:title></dc:title>
      </cc:Work>
    </rdf:RDF>
  </metadata>
  <g
     inkscape:label="Layer 1"
     inkscape:groupmode="layer"
     id="layer1"
     transform="translate(52.478344,-286.81146)">
    <g
       aria-label="AEAPI"
       style="font-style:normal;font-variant:normal;font-weight:normal;font-stretch:normal;font-size:3.52777767px;line-height:1.25;font-family:Philosopher;-inkscape-font-specification:Philosopher;letter-spacing:0px;word-spacing:0px;fill:#000000;fill-opacity:1;stroke:none;stroke-width:0.26458335"
       id="text3222">
      <path
         d="m -37.820427,315.8621 q -1.151466,0 -2.278944,-0.62371 -1.127478,-0.6477 -1.799167,-2.49484 l -0.599722,-1.55928 h -6.716889 l -1.919112,4.55789 h -1.0795 l 6.71689,-15.83267 h 0.719666 l 5.277556,12.83406 q 0.599722,1.39135 1.127478,1.91911 0.527755,0.50376 1.5113,0.59972 v 0.47978 q -0.4318,0.11994 -0.959556,0.11994 z m -11.034889,-5.63739 h 5.877278 l -2.878667,-6.95678 z"
         style="font-size:23.98888969px;stroke-width:0.26458335;fill:#000000;fill-opacity:1"
         id="path3235"
         inkscape:connector-curvature="0" />
      <path
         d="m -34.971371,302.78816 q 0,-1.22344 -0.335845,-1.79917 -0.335844,-0.59972 -1.343378,-0.59972 h -0.479777 v -0.47978 h 10.219267 q 2.039055,0 2.039055,1.91911 v 1.79917 h -0.479777 q 0,-2.75872 -2.998612,-2.75872 h -4.461933 v 6.23711 h 6.477 v 0.95955 h -6.477 v 6.71689 h 4.198056 q 1.655233,0 2.5908,-0.59972 0.935566,-0.59972 1.487311,-2.03906 l 0.479778,0.11995 -0.839612,2.27894 q -0.4318,1.19945 -1.799166,1.19945 h -8.276167 z"
         style="font-size:23.98888969px;stroke-width:0.26458335;fill:#000000;fill-opacity:1"
         id="path3237"
         inkscape:connector-curvature="0" />
      <path
         d="m -8.4434087,315.8621 q -1.1514668,0 -2.2789443,-0.62371 -1.127478,-0.6477 -1.799167,-2.49484 l -0.599722,-1.55928 h -6.716889 l -1.919112,4.55789 h -1.0795 l 6.71689,-15.83267 h 0.719666 l 5.277556,12.83406 q 0.5997222,1.39135 1.1274778,1.91911 0.5277556,0.50376 1.5113,0.59972 v 0.47978 q -0.4318,0.11994 -0.9595555,0.11994 z m -11.0348893,-5.63739 h 5.877278 l -2.878667,-6.95678 z"
         style="font-size:23.98888969px;stroke-width:0.26458335;fill:#000000;fill-opacity:1"
         id="path3239"
         inkscape:connector-curvature="0" />
      <path
         d="m -5.5943542,302.78816 q 0,-1.22344 -0.3358445,-1.79917 -0.3358444,-0.59972 -1.3433778,-0.59972 h -0.4797778 v -0.47978 h 6.2371113 q 2.30293345,0 4.150078,0.98354 1.8471445,0.98355 1.8471445,3.81424 0,1.87113 -0.9595556,2.87866 -0.9595556,1.00754 -2.1590001,1.34338 -1.17545559,0.33585 -2.15900007,0.33585 H -3.4353541 v 6.477 h -2.1590001 z m 3.9581668,5.63739 q 0.76764446,0 1.63124449,-0.38383 0.86360003,-0.40781 1.46332231,-1.27141 0.6237111,-0.8636 0.6237111,-2.18299 0,-1.31939 -0.6237111,-2.18299 -0.59972228,-0.8636 -1.46332231,-1.24742 -0.86360003,-0.40781 -1.63124449,-0.40781 -0.8396111,0 -1.7991667,0.23989 v 7.19667 q 0.9595556,0.23989 1.7991667,0.23989 z"
         style="font-size:23.98888969px;stroke-width:0.26458335;fill:#000000;fill-opacity:1"
         id="path3241"
         inkscape:connector-curvature="0" />
      <path
         d="m 9.4163219,315.74216 q -0.8875889,0 -1.3433778,-0.2159 -0.4318,-0.23989 -0.6237112,-0.83961 -0.1919111,-0.59973 -0.1919111,-1.82316 v -12.954 h 2.1590001 v 12.954 q 0,1.22343 0.3358444,1.82316 0.3358447,0.57573 1.3433777,0.57573 h 0.479778 v 0.47978 z"
         style="font-size:23.98888969px;stroke-width:0.26458335;fill:#000000;fill-opacity:1"
         id="path3243"
         inkscape:connector-curvature="0" />
    </g>
    <g
       id="g3229"
       transform="translate(3.7041498,-0.13224472)">
      <path
         transform="matrix(0.26458334,0,0,0.26458334,0.79374957,287.21036)"
         inkscape:connector-curvature="0"
         id="rect4592"
         d="m 6,12 a 3.0000006,3.000008 0 0 0 -3,3 3.0000006,3.000008 0 0 0 0.7695312,2 H 2.2089844 0.234375 0.20117188 C 0.77289533,20.751143 2.5597703,23.155971 4.234375,25.144531 6.2566471,27.545967 7.9980469,29.333367 7.9980469,33 H 8 10 14 V 28.974609 28.869141 A 4.0000015,3.9999533 0 0 1 13,29 4.0000015,3.9999533 0 0 1 9,25 a 4.0000015,3.9999533 0 0 1 4,-4 4.0000015,3.9999533 0 0 1 1,0.132812 V 17 H 8.2324219 A 3.0000006,3.000008 0 0 0 9,15 3.0000006,3.000008 0 0 0 6,12 Z"
         style="opacity:1;fill:url(#linearGradient3185);fill-opacity:1;stroke:none;stroke-width:0.5;stroke-linecap:round;stroke-linejoin:round;stroke-miterlimit:4;stroke-dasharray:none;stroke-opacity:1" />
      <path
         transform="matrix(0.26458334,0,0,0.26458334,0.79374957,287.21036)"
         inkscape:connector-curvature="0"
         id="rect4574"
         d="M 14,-0.0078125 A 14.5,14.5 0 0 0 0,14.474609 h -0.00390625 c 0,0.524145 0.02880195,1.019547 0.0703125,1.5 H 0.08203125 2.0703125 2.125 A 4.0000015,3.9999533 0 0 1 2,15 4.0000015,3.9999533 0 0 1 6,11 4.0000015,3.9999533 0 0 1 10,15 4.0000015,3.9999533 0 0 1 9.875,15.974609 H 14 V 10.232422 A 3.0000006,3.000008 0 0 0 16,11 3.0000006,3.000008 0 0 0 19,8 3.0000006,3.000008 0 0 0 16,5 3.0000006,3.000008 0 0 0 14,5.7695312 Z"
         style="opacity:1;fill:url(#linearGradient3209);fill-opacity:1;stroke:none;stroke-width:0.5;stroke-linecap:round;stroke-linejoin:round;stroke-miterlimit:4;stroke-dasharray:none;stroke-opacity:1" />
      <path
         transform="matrix(0.26458334,0,0,0.26458334,0.79374957,287.21036)"
         inkscape:connector-curvature="0"
         id="rect4555"
         d="M 15,0.02539063 V 4.1308594 A 4.0000015,3.9999533 0 0 1 16,4 4.0000015,3.9999533 0 0 1 20,8 4.0000015,3.9999533 0 0 1 16,12 4.0000015,3.9999533 0 0 1 15,11.867188 V 16 h 5.769531 A 3.0000006,3.000008 0 0 0 20,18 a 3.0000006,3.000008 0 0 0 3,3 3.0000006,3.000008 0 0 0 3,-3 3.0000006,3.000008 0 0 0 -0.769531,-2 h 1.697265 1.976563 0.02734 c 0.03664,-0.424156 0.05513,-0.867283 0.06055,-1.324219 A 14.5,14.5 0 0 0 29,14.5 14.5,14.5 0 0 0 15,0.02539063 Z"
         style="opacity:1;fill:url(#linearGradient3231);fill-opacity:1;stroke:none;stroke-width:0.5;stroke-linecap:round;stroke-linejoin:round;stroke-miterlimit:4;stroke-dasharray:none;stroke-opacity:1" />
      <path
         id="rect844"
         transform="matrix(0.26458334,0,0,0.26458334,-52.612294,286.94371)"
         d="m 209.84961,35.007812 v 2 h 13 v -2 z m 0,3 v 2 h 13 v -2 z m 2,3 c 0,2.500045 9,2.500045 9,0 z"
         style="opacity:1;fill:url(#linearGradient3233);fill-opacity:1;stroke:none;stroke-width:0.73597354;stroke-linecap:round;stroke-linejoin:round;stroke-miterlimit:4;stroke-dasharray:none;stroke-opacity:1"
         inkscape:connector-curvature="0" />
      <path
         transform="matrix(0.26458334,0,0,0.26458334,0.79374957,287.21036)"
         inkscape:connector-curvature="0"
         id="path820-9"
         d="m 15,16.974609 v 5.792969 A 3.0000006,3.000008 0 0 0 13,22 a 3.0000006,3.000008 0 0 0 -3,3 3.0000006,3.000008 0 0 0 3,3 3.0000006,3.000008 0 0 0 2,-0.769531 v 1.726562 4.017578 h 6 v -0.0332 c 0.01115,-3.64286 1.747899,-5.428539 3.763672,-7.822265 1.674603,-1.988561 3.461481,-4.393388 4.033203,-8.144532 h -0.0332 -1.900391 A 4.0000015,3.9999533 0 0 1 27,18 a 4.0000015,3.9999533 0 0 1 -4,4 4.0000015,3.9999533 0 0 1 -4,-4 4.0000015,3.9999533 0 0 1 0.138672,-1.025391 z"
         style="opacity:1;fill:url(#linearGradient3177);fill-opacity:1;stroke:none;stroke-width:1.03571415;stroke-linecap:round;stroke-linejoin:round;stroke-miterlimit:4;stroke-dasharray:none;stroke-opacity:1" />
    </g>
    <flowRoot
       xml:space="preserve"
       id="flowRoot820"
       style="font-style:normal;font-variant:normal;font-weight:normal;font-stretch:normal;font-size:2.66666675px;line-height:1.25;font-family:Signika;-inkscape-font-specification:Signika;letter-spacing:0px;word-spacing:0px;fill:#000000;fill-opacity:1;stroke:none"><flowRegion
         id="flowRegion822"><rect
           id="rect824"
           width="124"
           height="42"
           x="-129"
           y="41.000187" /></flowRegion><flowPara
         id="flowPara826" /></flowRoot>    <flowRoot
       xml:space="preserve"
       id="flowRoot836"
       style="font-style:normal;font-variant:normal;font-weight:normal;font-stretch:normal;font-size:2.66666675px;line-height:1.25;font-family:'Baskerville Old Face';-inkscape-font-specification:'Baskerville Old Face';letter-spacing:0px;word-spacing:0px;fill:#000000;fill-opacity:1;stroke:none"><flowRegion
         id="flowRegion838"><rect
           id="rect840"
           width="280"
           height="88"
           x="11.849591"
           y="143.008" /></flowRegion><flowPara
         id="flowPara842" /></flowRoot>    <text
       xml:space="preserve"
       style="font-style:normal;font-variant:normal;font-weight:normal;font-stretch:normal;font-size:0.70555562px;line-height:1.25;font-family:'Baskerville Old Face';-inkscape-font-specification:'Baskerville Old Face';letter-spacing:0px;word-spacing:0px;fill:#000000;fill-opacity:1;stroke:none;stroke-width:0.26458335"
       x="-53.97501"
       y="321.34167"
       id="text846"><tspan
         sodipodi:role="line"
         id="tspan844"
         x="-53.97501"
         y="321.98987"
         style="stroke-width:0.26458335" /></text>
  </g>
</svg>
