<?xml version="1.0" encoding="UTF-8" standalone="no"?>
<svg width="612px" height="174px" viewBox="0 0 612 174" version="1.1" xmlns="http://www.w3.org/2000/svg" xmlns:xlink="http://www.w3.org/1999/xlink">
    <!-- Generator: Sketch 40 (33762) - http://www.bohemiancoding.com/sketch -->
    <title>Page 1</title>
    <desc>Created with Sketch.</desc>
    <defs>
        <polygon id="path-1" points="0.9293 174 172.864 174 172.864 0.0304 0.9293 0.0304"></polygon>
        <polygon id="path-3" points="0 174.97 611.864 174.97 611.864 1 0 1"></polygon>
    </defs>
    <g id="Page-1" stroke="none" stroke-width="1" fill="none" fill-rule="evenodd">
        <g transform="translate(0.000000, -1.000000)">
            <g id="Group-3" transform="translate(439.000000, 0.970000)">
                <mask id="mask-2" fill="white">
                    <use xlink:href="#path-1"></use>
                </mask>
                <g id="Clip-2"></g>
                <path d="M172.8643,156.6084 C172.8643,166.2134 165.1053,174.0004 155.5303,174.0004 L18.2633,174.0004 C8.6883,174.0004 0.9293,166.2134 0.9293,156.6084 L0.9293,17.4224 C0.9293,7.8174 8.6883,0.0304 18.2633,0.0304 L155.5303,0.0304 C165.1053,0.0304 172.8643,7.8174 172.8643,17.4224 L172.8643,156.6084 Z" id="Fill-1" fill="#006699" mask="url(#mask-2)"></path>
            </g>
            <polygon id="Fill-4" fill="#000000" points="0 36.0789 23.132 36.0789 23.132 119.1729 63.917 119.1729 63.917 138.6529 0 138.6529"></polygon>
            <mask id="mask-4" fill="white">
                <use xlink:href="#path-3"></use>
            </mask>
            <g id="Clip-7"></g>
            <path d="M72.129,138.653 L95.262,138.653 L95.262,64.235 L72.129,64.235 L72.129,138.653 Z M96.021,43.538 C96.021,49.928 91.304,55.103 83.543,55.103 C76.238,55.103 71.52,49.928 71.52,43.538 C71.52,36.994 76.391,31.973 83.848,31.973 C91.304,31.973 95.871,36.994 96.021,43.538 L96.021,43.538 Z" id="Fill-6" fill="#000000" mask="url(#mask-4)"></path>
            <path d="M109.104,87.9744 C109.104,78.6924 108.8,70.9324 108.496,64.2344 L128.583,64.2344 L129.65,74.5834 L130.107,74.5834 C133.15,69.7124 140.607,62.5604 153.085,62.5604 C168.305,62.5604 179.72,72.7574 179.72,94.6714 L179.72,138.6524 L156.586,138.6524 L156.586,97.4104 C156.586,87.8234 153.239,81.2804 144.869,81.2804 C138.477,81.2804 134.672,85.6934 132.997,89.9534 C132.389,91.4754 132.238,93.6054 132.238,95.7374 L132.238,138.6524 L109.104,138.6524 L109.104,87.9744 Z" id="Fill-8" fill="#000000" mask="url(#mask-4)"></path>
            <path d="M216.6948,95.5843 L216.9988,95.5843 C218.6748,92.3883 220.4998,89.3453 222.3258,86.6063 L237.3918,64.2343 L265.2408,64.2343 L238.6088,94.3663 L269.0458,138.6523 L240.5878,138.6523 L222.4768,108.0633 L216.6948,115.3673 L216.6948,138.6523 L193.5618,138.6523 L193.5618,30.6023 L216.6948,30.6023 L216.6948,95.5843 Z" id="Fill-9" fill="#000000" mask="url(#mask-4)"></path>
            <path d="M314.2412,92.9964 C314.2412,87.3664 311.8072,77.9304 301.1542,77.9304 C291.4142,77.9304 287.4562,86.9114 286.8482,92.9964 L314.2412,92.9964 Z M287.0012,108.8244 C287.6102,118.4114 297.1962,122.9774 308.0022,122.9774 C315.9162,122.9774 322.3072,121.9114 328.5492,119.7814 L331.5912,135.4564 C323.9812,138.6524 314.6992,140.1744 304.6552,140.1744 C279.3912,140.1744 264.9332,125.5654 264.9332,102.2804 C264.9332,83.4104 276.6532,62.5604 302.5222,62.5604 C326.5692,62.5604 335.7002,81.2804 335.7002,99.6934 C335.7002,103.6494 335.2422,107.1494 334.9382,108.8244 L287.0012,108.8244 Z" id="Fill-10" fill="#000000" mask="url(#mask-4)"></path>
            <path d="M393.8281,95.7376 C393.8281,94.5176 393.8281,92.8446 393.5231,91.4746 C392.1551,85.3896 387.1341,80.2146 379.9811,80.2146 C369.3261,80.2146 363.9991,89.6496 363.9991,101.3686 C363.9991,113.9976 370.2411,121.9116 379.8281,121.9116 C386.5241,121.9116 392.0021,117.3466 393.3721,110.8036 C393.6781,109.1296 393.8281,107.3036 393.8281,105.4776 L393.8281,95.7376 Z M416.9611,30.6016 L416.9611,116.4336 C416.9611,124.8026 417.2651,133.6316 417.5701,138.6526 L397.0231,138.6526 L396.1111,127.8466 L395.6561,127.8466 C391.0901,136.0646 381.9581,140.3286 372.3711,140.3286 C354.7181,140.3286 340.5641,125.2606 340.5641,102.1286 C340.4131,77.0176 356.0881,62.4086 373.8921,62.4086 C383.1761,62.4086 390.1761,65.7566 393.5231,70.7786 L393.8281,70.7786 L393.8281,30.6016 L416.9611,30.6016 Z" id="Fill-11" fill="#000000" mask="url(#mask-4)"></path>
            <path d="M471.968,138.653 L495.1,138.653 L495.1,64.235 L471.968,64.235 L471.968,138.653 Z M495.859,43.538 C495.859,49.928 491.142,55.103 483.381,55.103 C476.077,55.103 471.359,49.928 471.359,43.538 C471.359,36.994 476.228,31.973 483.685,31.973 C491.142,31.973 495.708,36.994 495.859,43.538 L495.859,43.538 Z" id="Fill-12" fill="#FFFFFF" mask="url(#mask-4)"></path>
            <path d="M508.9434,87.9744 C508.9434,78.6924 508.6394,70.9324 508.3364,64.2344 L528.4234,64.2344 L529.4894,74.5834 L529.9454,74.5834 C532.9884,69.7124 540.4464,62.5604 552.9254,62.5604 C568.1444,62.5604 579.5564,72.7574 579.5564,94.6714 L579.5564,138.6524 L556.4254,138.6524 L556.4254,97.4104 C556.4254,87.8234 553.0764,81.2804 544.7064,81.2804 C538.3144,81.2804 534.5114,85.6934 532.8374,89.9534 C532.2284,91.4754 532.0744,93.6054 532.0744,95.7374 L532.0744,138.6524 L508.9434,138.6524 L508.9434,87.9744 Z" id="Fill-13" fill="#FFFFFF" mask="url(#mask-4)"></path>
        </g>
    </g>
</svg>