<?xml version="1.0" encoding="UTF-8" standalone="no"?>
<!-- Created with Inkscape (http://www.inkscape.org/) -->

<svg
   xmlns:dc="http://purl.org/dc/elements/1.1/"
   xmlns:cc="http://creativecommons.org/ns#"
   xmlns:rdf="http://www.w3.org/1999/02/22-rdf-syntax-ns#"
   xmlns:svg="http://www.w3.org/2000/svg"
   xmlns="http://www.w3.org/2000/svg"
   xmlns:sodipodi="http://sodipodi.sourceforge.net/DTD/sodipodi-0.dtd"
   xmlns:inkscape="http://www.inkscape.org/namespaces/inkscape"
   width="249.84962"
   height="128.16884"
   viewBox="0 0 66.106045 33.91134"
   version="1.1"
   id="svg8"
   inkscape:version="0.92.3 (2405546, 2018-03-11)"
   sodipodi:docname="logo.svg">
  <defs
     id="defs2" />
  <sodipodi:namedview
     id="base"
     pagecolor="#ffffff"
     bordercolor="#666666"
     borderopacity="1.0"
     inkscape:pageopacity="0.0"
     inkscape:pageshadow="2"
     inkscape:zoom="8"
     inkscape:cx="4.7481059"
     inkscape:cy="40.040942"
     inkscape:document-units="px"
     inkscape:current-layer="text830"
     showgrid="true"
     units="px"
     inkscape:snap-smooth-nodes="true"
     inkscape:snap-intersection-paths="true"
     inkscape:object-paths="true"
     inkscape:window-width="1920"
     inkscape:window-height="1017"
     inkscape:window-x="-8"
     inkscape:window-y="-8"
     inkscape:window-maximized="1"
     fit-margin-top="10"
     fit-margin-left="10"
     fit-margin-right="10"
     fit-margin-bottom="10">
    <inkscape:grid
       type="xygrid"
       id="grid818"
       spacingx="0.13229167"
       spacingy="0.13229167"
       empspacing="2"
       originx="54.99353"
       originy="21.473809"
       dotted="false"
       enabled="true"
       visible="false" />
  </sodipodi:namedview>
  <metadata
     id="metadata5">
    <rdf:RDF>
      <cc:Work
         rdf:about="">
        <dc:format>image/svg+xml</dc:format>
        <dc:type
           rdf:resource="http://purl.org/dc/dcmitype/StillImage" />
        <dc:title></dc:title>
      </cc:Work>
    </rdf:RDF>
  </metadata>
  <g
     inkscape:label="Layer 1"
     inkscape:groupmode="layer"
     id="layer1"
     transform="translate(54.993546,-284.56246)">
    <path
       style="opacity:1;fill:#ff7a00;fill-opacity:1;stroke:none;stroke-width:0.5;stroke-linecap:round;stroke-linejoin:round;stroke-miterlimit:4;stroke-dasharray:none;stroke-opacity:1"
       d="m 6,12 a 3.0000006,3.000008 0 0 0 -3,3 3.0000006,3.000008 0 0 0 0.7695312,2 H 2.2089844 0.234375 0.20117188 C 0.77289533,20.751143 2.5597703,23.155971 4.234375,25.144531 6.2566471,27.545967 7.9980469,29.333367 7.9980469,33 H 8 10 14 V 28.974609 28.869141 A 4.0000015,3.9999533 0 0 1 13,29 4.0000015,3.9999533 0 0 1 9,25 a 4.0000015,3.9999533 0 0 1 4,-4 4.0000015,3.9999533 0 0 1 1,0.132812 V 17 H 8.2324219 A 3.0000006,3.000008 0 0 0 9,15 3.0000006,3.000008 0 0 0 6,12 Z"
       transform="matrix(0.26458334,0,0,0.26458334,0.79374957,287.21036)"
       id="rect4592"
       inkscape:connector-curvature="0" />
    <path
       style="opacity:1;fill:#00bad4;fill-opacity:1;stroke:none;stroke-width:0.5;stroke-linecap:round;stroke-linejoin:round;stroke-miterlimit:4;stroke-dasharray:none;stroke-opacity:1"
       d="M 14,-0.0078125 A 14.5,14.5 0 0 0 0,14.474609 h -0.00390625 c 0,0.524145 0.02880195,1.019547 0.0703125,1.5 H 0.08203125 2.0703125 2.125 A 4.0000015,3.9999533 0 0 1 2,15 4.0000015,3.9999533 0 0 1 6,11 4.0000015,3.9999533 0 0 1 10,15 4.0000015,3.9999533 0 0 1 9.875,15.974609 H 14 V 10.232422 A 3.0000006,3.000008 0 0 0 16,11 3.0000006,3.000008 0 0 0 19,8 3.0000006,3.000008 0 0 0 16,5 3.0000006,3.000008 0 0 0 14,5.7695312 Z"
       transform="matrix(0.26458334,0,0,0.26458334,0.79374957,287.21036)"
       id="rect4574"
       inkscape:connector-curvature="0" />
    <path
       style="opacity:1;fill:#0037db;fill-opacity:1;stroke:none;stroke-width:0.5;stroke-linecap:round;stroke-linejoin:round;stroke-miterlimit:4;stroke-dasharray:none;stroke-opacity:1"
       d="M 15,0.02539063 V 4.1308594 A 4.0000015,3.9999533 0 0 1 16,4 4.0000015,3.9999533 0 0 1 20,8 4.0000015,3.9999533 0 0 1 16,12 4.0000015,3.9999533 0 0 1 15,11.867188 V 16 h 5.769531 A 3.0000006,3.000008 0 0 0 20,18 a 3.0000006,3.000008 0 0 0 3,3 3.0000006,3.000008 0 0 0 3,-3 3.0000006,3.000008 0 0 0 -0.769531,-2 h 1.697265 1.976563 0.02734 c 0.03664,-0.424156 0.05513,-0.867283 0.06055,-1.324219 A 14.5,14.5 0 0 0 29,14.5 14.5,14.5 0 0 0 15,0.02539063 Z"
       transform="matrix(0.26458334,0,0,0.26458334,0.79374957,287.21036)"
       id="rect4555"
       inkscape:connector-curvature="0" />
    <path
       inkscape:connector-curvature="0"
       style="opacity:1;fill:#455a64;fill-opacity:1;stroke:none;stroke-width:0.19472633;stroke-linecap:round;stroke-linejoin:round;stroke-miterlimit:4;stroke-dasharray:none;stroke-opacity:1"
       d="m 2.9104166,296.20624 h 3.4395833 v 0.52916 H 2.9104166 Z"
       id="rect844" />
    <path
       inkscape:connector-curvature="0"
       style="opacity:1;fill:#455a64;fill-opacity:1;stroke:none;stroke-width:0.21330959;stroke-linecap:round;stroke-linejoin:round;stroke-miterlimit:4;stroke-dasharray:none;stroke-opacity:1"
       d="m 2.9104168,297 h 3.4395834 v 0.52915 H 2.9104168 Z"
       id="rect850" />
    <path
       inkscape:connector-curvature="0"
       style="opacity:1;fill:#455a64;fill-opacity:1;stroke:none;stroke-width:0.19843693;stroke-linecap:round;stroke-linejoin:round;stroke-miterlimit:4;stroke-dasharray:none;stroke-opacity:1"
       d="m 3.4395833,297.79373 h 2.3812504 c -2e-7,0.66147 -2.3812502,0.66147 -2.3812504,0 z"
       id="rect852"
       sodipodi:nodetypes="ccc" />
    <path
       style="opacity:1;fill:#ffae00;fill-opacity:1;stroke:none;stroke-width:1.03571415;stroke-linecap:round;stroke-linejoin:round;stroke-miterlimit:4;stroke-dasharray:none;stroke-opacity:1"
       d="m 15,16.974609 v 5.792969 A 3.0000006,3.000008 0 0 0 13,22 a 3.0000006,3.000008 0 0 0 -3,3 3.0000006,3.000008 0 0 0 3,3 3.0000006,3.000008 0 0 0 2,-0.769531 v 1.726562 4.017578 h 6 v -0.0332 c 0.01115,-3.64286 1.747899,-5.428539 3.763672,-7.822265 1.674603,-1.988561 3.461481,-4.393388 4.033203,-8.144532 h -0.0332 -1.900391 A 4.0000015,3.9999533 0 0 1 27,18 a 4.0000015,3.9999533 0 0 1 -4,4 4.0000015,3.9999533 0 0 1 -4,-4 4.0000015,3.9999533 0 0 1 0.138672,-1.025391 z"
       transform="matrix(0.26458334,0,0,0.26458334,0.79374957,287.21036)"
       id="path820-9"
       inkscape:connector-curvature="0" />
    <flowRoot
       xml:space="preserve"
       id="flowRoot820"
       style="font-style:normal;font-variant:normal;font-weight:normal;font-stretch:normal;font-size:2.66666675px;line-height:1.25;font-family:Signika;-inkscape-font-specification:Signika;letter-spacing:0px;word-spacing:0px;fill:#000000;fill-opacity:1;stroke:none"><flowRegion
         id="flowRegion822"><rect
           id="rect824"
           width="124"
           height="42"
           x="-129"
           y="41.000187" /></flowRegion><flowPara
         id="flowPara826" /></flowRoot>    <g
       aria-label="AEAPI"
       style="font-style:normal;font-variant:normal;font-weight:normal;font-stretch:normal;font-size:0.70555562px;line-height:1.25;font-family:Signika;-inkscape-font-specification:Signika;letter-spacing:0px;word-spacing:0px;fill:#3c4043;fill-opacity:1;stroke:none;stroke-width:0.26458335"
       id="text830">
      <path
         d="m -42.969116,311.86098 -1.375833,0.0229 h -3.141486 l -1.329972,-0.0229 -1.21532,3.8294 q -0.389819,0.0917 -1.031875,0.0917 -0.642055,0 -1.215319,-0.16051 l -0.06879,-0.11465 5.182306,-15.50106 q 0.481541,-0.0917 1.398763,-0.0917 0.917223,0 1.375834,0.0917 l 5.136444,15.50106 q -0.481541,0.32102 -1.23825,0.32102 -0.756708,0 -1.077736,-0.27516 -0.321028,-0.27517 -0.550333,-1.00895 z m -5.228166,-1.97203 1.169458,-0.0229 h 2.293055 q 0.940153,0.0229 1.146528,0.0229 l -1.054805,-3.32493 q -0.80257,-2.56822 -1.21532,-4.15043 h -0.114653 q -0.275166,1.26118 -0.894291,3.32493 z"
         style="font-size:22.93055534px;fill:#3c4043;fill-opacity:1;stroke-width:0.26458335"
         id="path832" />
      <path
         d="m -34.316773,312.50303 -0.02293,1.16946 q 0.687917,-0.0688 1.513416,-0.0688 h 5.939014 q 0,0.61912 -0.06879,0.94015 -0.206375,1.14653 -1.559278,1.14653 h -6.810375 q -0.642056,0 -1.031875,-0.38982 -0.366889,-0.41275 -0.366889,-1.1236 v -14.0335 l 0.160514,-0.13758 h 9.218083 q 0.06879,0.36689 0.06879,0.98601 0,0.5962 -0.183445,1.07774 h -6.879166 l 0.02293,1.49049 v 3.21027 l 1.421695,-0.0229 h 4.310944 q 0.114653,0.41275 0.114653,1.03188 0,0.59619 -0.114653,0.98601 h -4.310944 q -0.894292,0 -1.421695,-0.0229 z"
         style="font-size:22.93055534px;fill:#3c4043;fill-opacity:1;stroke-width:0.26458335"
         id="path834" />
      <path
         d="m -15.963012,311.86098 -1.375834,0.0229 h -3.141486 l -1.329972,-0.0229 -1.215319,3.8294 q -0.38982,0.0917 -1.031875,0.0917 -0.642056,0 -1.21532,-0.16051 l -0.06879,-0.11465 5.182305,-15.50106 q 0.481542,-0.0917 1.398764,-0.0917 0.917222,0 1.375833,0.0917 l 5.136445,15.50106 q -0.481542,0.32102 -1.23825,0.32102 -0.756709,0 -1.077736,-0.27516 -0.321028,-0.27517 -0.550334,-1.00895 z m -5.228167,-1.97203 1.169458,-0.0229 h 2.293056 q 0.940153,0.0229 1.146528,0.0229 l -1.054806,-3.32493 q -0.802569,-2.56822 -1.215319,-4.15043 h -0.114653 q -0.275167,1.26118 -0.894292,3.32493 z"
         style="font-size:22.93055534px;fill:#3c4043;fill-opacity:1;stroke-width:0.26458335"
         id="path836" />
      <path
         d="m -9.5578635,299.98295 4.7236944,-0.0688 q 1.1923889,0 2.1554722,0.34396 0.9860139,0.32102 1.6739305,0.96308 0.68791669,0.64206 1.05480558,1.60514 0.36688888,0.94015 0.36688888,2.1784 0,1.23825 -0.38981944,2.20134 -0.36688888,0.96308 -1.05480552,1.62806 -0.6879167,0.64206 -1.6739306,0.98602 -0.9630833,0.32103 -2.1325416,0.32103 H -7.264808 v 5.52626 q -0.2522361,0.0459 -0.5732639,0.0688 -0.3210277,0.0229 -0.6649861,0.0229 -0.3210277,0 -0.6420555,-0.0229 -0.3210278,-0.0229 -0.5503333,-0.0688 v -15.52399 z m 2.2930555,8.23207 2.3389167,-0.0229 q 0.7796388,0 1.3070416,-0.25224 0.5503334,-0.27516 0.8713611,-0.71084 0.3210278,-0.43568 0.4586111,-1.00895 0.1605139,-0.57326 0.1605139,-1.19239 0,-0.64205 -0.1605139,-1.21532 -0.1375833,-0.57326 -0.4586111,-1.00894 -0.3210277,-0.43568 -0.8713611,-0.68792 -0.5274028,-0.25223 -1.2841111,-0.25223 -0.8025694,0 -1.3987639,0 -0.5732638,0 -0.9630833,-0.0229 z"
         style="font-size:22.93055534px;fill:#3c4043;fill-opacity:1;stroke-width:0.26458335"
         id="path838" />
      <path
         d="m 3.4061398,315.66745 v -15.66157 q 0.4586111,-0.0917 1.1923889,-0.0917 0.7567083,0 1.2382499,0.0917 v 15.66157 q -0.4815416,0.0917 -1.2382499,0.0917 -0.7337778,0 -1.1923889,-0.0917 z"
         style="font-size:22.93055534px;fill:#3c4043;fill-opacity:1;stroke-width:0.26458335"
         id="path840" />
    </g>
    <flowRoot
       xml:space="preserve"
       id="flowRoot836"
       style="font-style:normal;font-variant:normal;font-weight:normal;font-stretch:normal;font-size:2.66666675px;line-height:1.25;font-family:'Baskerville Old Face';-inkscape-font-specification:'Baskerville Old Face';letter-spacing:0px;word-spacing:0px;fill:#000000;fill-opacity:1;stroke:none"><flowRegion
         id="flowRegion838"><rect
           id="rect840"
           width="280"
           height="88"
           x="11.849591"
           y="143.008" /></flowRegion><flowPara
         id="flowPara842" /></flowRoot>    <text
       xml:space="preserve"
       style="font-style:normal;font-variant:normal;font-weight:normal;font-stretch:normal;font-size:0.70555562px;line-height:1.25;font-family:'Baskerville Old Face';-inkscape-font-specification:'Baskerville Old Face';letter-spacing:0px;word-spacing:0px;fill:#000000;fill-opacity:1;stroke:none;stroke-width:0.26458335"
       x="-53.97501"
       y="321.34167"
       id="text846"><tspan
         sodipodi:role="line"
         id="tspan844"
         x="-53.97501"
         y="321.98987"
         style="stroke-width:0.26458335" /></text>
  </g>
</svg>
